<svg xmlns="http://www.w3.org/2000/svg" width="210mm" height="297mm" version="1.1" viewBox="0 0 744.094 1052.362">
   <g fillOpacity="1" fillRule="evenodd" strokeOpacity="1">
      <path fill="#0293e1" stroke="#000" strokeDasharray="none" strokeLinecap="round" strokeMiterlimit="4" strokeWidth="3.384" d="M259.83 750.954c-3.396-.753-7.034-5.767-7.727-10.648-1.036-7.301-3.169-58.383-3.125-81.497.034-17.652.38-22.937 1.846-28.224 4.815-17.37 13.743-24.366 27.215-21.325 9.612 2.17 25.074 11.681 38.935 23.951l4.397 3.893-1.165 18.68c-2.47 39.607-6.608 64.703-9.783 78.84-1.261 5.614-2.18 7.36-5.42 10.286-2.145 1.938-5.637 4.048-7.76 4.69-3.94 1.188-33.358 2.254-37.413 1.354z" display="inline" opacity="1"></path>
      <path fill="#0293e1" stroke="#000" strokeDasharray="none" strokeLinecap="round" strokeMiterlimit="4" strokeWidth="3.315" d="M423.91 421.188c-25.155-16.197-41.362-27.753-71.234-50.789l-38.67-29.82-10.496.016c-23.19.035-51.385 1.892-58.249 3.836l-6.873 1.948-4.363-3.023c-6.582-4.561-10.353-10.703-10.943-17.819-.275-3.31-.065-6.022.466-6.026 3.832-.03 26.441-4.587 27.372-5.518 1.973-1.973-.66-4.663-9.387-9.593-10.623-6.002-10.943-6.329-10.943-11.183 0-5.507 3.064-10.906 8.356-14.725l4.35-3.139 34.25 11.082c77.666 25.13 104.745 32.272 140.317 37.01 17.385 2.316 48.719 2.62 63.529.618 25.672-3.473 40.632-10.16 63.99-21.768 16.92-8.408 18.304-8.482 24.35-1.298 2.497 2.969 2.983 4.599 2.983 10.013v6.467l-8.563 4.66c-8.624 4.694-13.534 8.348-13.534 10.072 0 .514 5.22 3.378 11.6 6.365 10.722 5.018 11.6 5.666 11.577 8.54-.058 7.448-11.948 21.848-21.158 26.553-3.504 1.79-.88-35.162-9.723-30.756-20.915 10.419-64.16 11.093-78.052 39.974-5.923 12.315-8.158 24.102-8.253 43.526-.042 8.658-.09 15.743-.105 15.744-.016.001-14.683-9.434-32.593-20.966z" display="inline" opacity="1"></path>
      <path fill="none" stroke="#000" strokeDasharray="none" strokeLinecap="round" strokeMiterlimit="4" strokeWidth="3.315" d="M248.028 412.5c1.687-37.577 3.02-40.528 5.865-69.228l2.3-23.202 5.705-5.856c14.154-14.53 30.434-16.852 54.17-7.723l8.69 3.342-1.593 59.935z" display="inline" opacity="1"></path>
      <path fill="#0293e1" stroke="#000" strokeDasharray="none" strokeLinecap="round" strokeMiterlimit="4" strokeWidth="3.384" d="M250.452 405.522c0-5.53 2.166-30.239 5.015-57.203l2.867-27.141 5.403-5.487c3.132-3.18 8.155-6.846 11.951-8.72 6.02-2.97 7.323-3.226 16.162-3.172 8.235.05 11.065.557 19.716 3.535l10.102 3.477.34 5.556c.189 3.056.027 16.039-.359 28.852l-.7 23.295-34.491 19.564c-18.97 10.76-34.832 19.737-35.248 19.948-.417.211-.758-.916-.758-2.504z" display="inline" opacity="1"></path>
      <path fill="none" stroke="#000" strokeDasharray="none" strokeLinecap="butt" strokeLinejoin="miter" strokeMiterlimit="4" strokeWidth="3.35" d="M263.453 384.37c17.638-5.966 29.62-16.96 37.89-31.25 5.86-11.278 15.117-16.437 26.173-18.36l27.734-3.515c13.303.466 17.682 7.18 20.703 14.844l16.406 38.28c20.256 33.808 43.483 42.852 66.797 51.173 104.665 130.975 67.87 196.746 43.75 268.36-13.217 19.776 13.779 9.392-51.172 67.968-61.628-8.037-119.148-28.673-165.234-84.375-32.423-47.886-74.422-53.64-94.14-157.422-4.133-70.099 21.922-116.844 71.093-145.703z" display="inline"></path>
      <path fill="#dd1b02" stroke="#000" strokeDasharray="none" strokeLinecap="round" strokeMiterlimit="4" strokeWidth="3.384" d="M446.927 769.2c-10.024-1.395-35.856-6.984-46.324-10.023-47.296-13.728-87.976-41.023-115.635-77.587-4.224-5.585-14.969-17.672-23.876-26.86-27.538-28.403-34.862-37.764-44.805-57.269-11.119-21.811-20.998-55.387-22.073-75.023-1.802-32.92 7.12-68.244 23.497-93.028 12.008-18.17 35.67-38.706 52.207-45.308 7.217-2.88 18.154-10.469 23.299-16.165 2.13-2.359 6.278-7.995 9.217-12.525 9.82-15.135 14.02-17.247 40.606-20.416 14.617-1.742 15.466-1.743 19.946-.032 2.696 1.03 5.683 3.14 7.05 4.98 1.304 1.755 6.509 12.837 11.566 24.625 10.105 23.556 11.273 25.682 20.202 36.782 6.326 7.863 13.243 14.23 21.737 20.006 5.748 3.909 23.484 12.412 29.823 14.298 4.039 1.202 5.333 2.548 15.152 15.766 46.03 61.963 63.99 113.81 57.21 165.162-1.61 12.197-5.115 27.744-9.118 40.442-5.14 16.303-14.966 43.891-17.235 48.39-1.3 2.577-2.826 7.559-3.392 11.071-.73 4.534-2.111 8.01-4.762 11.982-3.59 5.38-39.192 41.617-40.584 41.306-.373-.083-2.042-.341-3.708-.573z" display="inline" opacity="1"></path>
      <path fill="#dd1b02" stroke="#000" strokeDasharray="none" strokeLinecap="round" strokeMiterlimit="4" strokeWidth="3.384" d="M451.213 325.253c-19.2-53.603-46.052 81.139-46.052 81.139-5.54.791-35.532-73.314-46.472-72.337-5.489.49-24.959 1.267-25.041 1.172-.083-.095.444-11.126 2.18-16.34 5.863-17.599 8.762-28.431 27.187-48.557 3.429-3.587 5.105-7.115 5.105-10.745 0-2.945-4.7-11.765-12.266-23.019-3.254-4.84-5.917-9.464-5.917-10.276 0-2.343 5.15-7.837 8.76-9.345 1.813-.758 4.889-1.378 6.835-1.378 3.53 0 3.542.016 5.888 7.73 2.624 8.628 4.36 10.084 9.466 7.938 2.35-.988 3.858-2.972 6.434-8.46 3.022-6.443 3.806-7.34 7.719-8.834 4.017-1.534 4.549-1.536 6.85-.028 2.58 1.69 5.058 8.2 3.862 10.146-.374.607-3.539 4.811-7.033 9.342-5.656 7.332-6.355 8.742-6.355 12.823 0 3.4.634 5.319 2.45 7.42 2.418 2.8 2.575 2.831 12.867 2.591 9.457-.22 10.586-.454 12.229-2.525 3.831-4.833 7.347-11.606 10.85-20.903 4.212-11.178 6.075-12.732 15.143-12.635 5.719.062 9.543 1.583 14.316 5.696l2.7 2.326-1.974 13.132c-1.836 12.219-1.86 13.428-.354 17.396 2.398 6.315 6.6 10.384 10.718 10.38 5.506-.007 9.397-3.298 16.705-14.13l6.881-10.199 5.803.453c6.974.544 11.807 3.141 13.48 7.243 1.164 2.85.826 3.758-5.81 15.63-3.874 6.93-7.546 14.477-8.159 16.769 2.227 19.737 21.295 17.08 24.178 29.523-14.225 6.762-49.724 16.793-73.173 10.862z" display="inline" opacity="1"></path>
      <path fill="#dd1b02" stroke="#000" strokeDasharray="none" strokeLinecap="round" strokeMiterlimit="4" strokeWidth="3.384" d="M477.468 394.108c-2.092-.52-5.502-1.81-7.578-2.87l-3.774-1.925-3.955-23.089 64.568-17.643v22.617l-3.87 3.142c-9.466 7.682-21.81 15.91-26.602 17.733-6.509 2.474-13.826 3.267-18.789 2.035z" display="inline" opacity="1"></path>
      <path fill="#fc5f54" stroke="#000" strokeLinecap="butt" strokeLinejoin="miter" strokeWidth="1" d="M421.3 498.889c13.75 13.06 29.971 17.875 32.858 67.143 1.8 19.171-3.24 36.062-12.857 51.428 17.27 36.867 22.25 80.755 12.857 132.857-32.652-28.963-55.41-65.347-72.857-105.714-2.47-21.473-1.55-41.25 18.571-51.429-25.51-7.244-21.42-29.29-25.714-47.142 8.553-30.037 27.346-39.595 47.143-47.143z" display="inline"></path>
      <path fill="#fc5f54" stroke="#000" strokeLinecap="butt" strokeLinejoin="miter" strokeWidth="1" d="M264.158 403.174c-61.45 32.472-57.32 78.06-64.286 121.429 44.283-46.501 71.284-55.56 92.857-52.857 39.348-26.208 49.085-43.956 62.857-62.857-19.032-12.777-2.81-59.044-91.428-5.715z" display="inline"></path>
      <path fill="#c97901" stroke="#000" strokeDasharray="none" strokeLinecap="butt" strokeLinejoin="miter" strokeMiterlimit="4" strokeWidth="3.35" d="M380.23 362.46c6.803 11.738 15.515 22.63 12.142 37.143-2.609 19.961-14.358 29.891-24.643 41.429-10.948 5.357-19.365 10.714-27.5 16.071-9.121 3.156-17.9 7.684-26.071 14.643l-22.857 6.071-19.286 9.286-16.071 7.5 6.428 2.857 19.643-12.143 1.071 4.643 15-9.286 8.929-2.857-32.143 37.5c-5.135 4.762-10.23 9.524-10.714 14.286-7.318 1.844-10.58 10.606-15.357 16.786l-21.786 18.928c5.635-2.408 12.947-7.61 13.214-1.071l-2.5 7.5-2.857 11.786v5l-3.214 12.5 4.286-5 2.142-6.43c-.519-4.602 4.098-2.886 8.215-1.785l-3.572-7.857 4.643-20.714c5.204-11.416 10.766-20.495 17.857-19.643 3.068 8.943 2.105 19.972-2.5 28.929-12.375 27.493-13.258 41.852-19.643 62.5-5.064 11.036.615 12.522 3.572 16.428.425 2.892 2.327 1.351 4.643-1.428-2.875-14.83 1.637-25.968 8.214-36.072.75-3.597.11-9 10-.714l47.5 55c7.077 14.09 15.78 27.145 33.214 34.643 6.903 4.057 13.336 9.99 19.286 17.857l12.857 22.143c6.823 11.891 10.213 13.046 15 18.571-9.128-12.183-10.367-17.195 1.429-10.357l-11.072-9.286-11.071-17.857c.075-2.743-3.839-10.273 5-2.5 14.07 7.603 22.128 19.5 29.643 31.786 36.103 29.153 27.343 17.403 33.928 19.643-12.799-7.868-25.435-15.962-33.571-30.357l-27.5-29.643c-8.69-7.934-17.381-10.135-26.072-13.572-14.113-10.284-26.233-25.217-37.5-42.143l9.643 2.143 21.429 12.857-2.857-6.071c-4.962-2.766-10.764-6.654-18.572-13.214-21.37-1.308-31.188-19.42-42.5-35.357l-13.571-21.786c-6.54-62.726 14.039-84.775 37.5-102.5 20.91-15.867 43.904-38.577 58.571-33.929.406 5.202-.088 11.078 3.929 13.572-.598 4.409-.686 7.8-2.143 13.928l-6.429 5.715c-3.89 4.77-2.458 7.411-1.785 10.357 2.296-3.427 4.462-7.912 7.143-8.215.5 8.468 3.43 16.62 12.857 23.929-3.314-6.78-6.29-13.446-6.786-19.286.434-7.653.917-15.405 3.214-26.785-4.207-5.358-1.946-10.715.357-16.072 1.875-3.123 4.317-7.951 7.143-13.928 11.209-20.733 22.83-41.283 25.715-65.715-4.031 5.068-7.721 11.498-13.572 9.286-7.216-3.678-12.353-12.708-19.643-19.643z" display="inline"></path>
      <path fill="#c97901" stroke="#000" strokeDasharray="none" strokeLinecap="butt" strokeLinejoin="miter" strokeMiterlimit="4" strokeWidth="3.35" d="M455.944 424.603l9.285 53.214c16.006 26.223 33.804 26.247 41.072 29.286 9.733 1.836 12.38 6.839 10.357 13.929-7.515-4.376-15.83-7.15-24.286-9.643-6.072 4.241-1.608 12.002.357 18.928l8.929 40.715 5.357 36.785 4.286 22.143 5 26.429-9.286-27.143c-8.366 37.987 8.157 74.453-36.786 117.5 7.295-15.927 17.398-26.39 23.929-53.214l-20 16.785 2.857-8.928-2.5-7.857c7.578 6.298 12.778-1.665 18.571-6.072 4.27-19.413 10.316-37.84 6.429-61.786 1.971-42.968-4.736-45.439-7.857-64.642l-3.929 15.357c-.456 3.945.152 7.712 5.357 10.714l.715 13.214c-3.974-8.036-8.348-18.005-6.786.715-2.728 6.87-5.417 13.838-10 16.071 5.308-16.73 7.382-28.804 5-37.857l1.786-23.572c.819-9.172 3.217-17.751-3.215-29.642-5-12.323-10-27.841-15-43.929z" display="inline"></path>
      <path fill="#700902" stroke="#c00602" strokeLinecap="butt" strokeLinejoin="miter" strokeWidth="1" d="M403.53 382.953c-5.023 14.326-8.634 31.1-18.106 48.025 0 0-16.745 17.635-16.745 19.655-25.638 2.238-43.947 22.799-64.65 37.376-36.961 28.978-38.186 67.486-35.355 107.076 23.81 45.36 45.754 54.06 64.65 81.822 13.326 9.797 15.924 21.977 40.406 29.295-19.257-2.537-28.725-18.778-41.921-29.8-19.916-32.618-48.085-45.402-58.59-80.307-19.852-73.478 27.64-116.407 95.46-147.482l17.678-17.173z" display="inline"></path>
      <path fill="#225d6a" stroke="#156295" strokeDasharray="none" strokeLinecap="butt" strokeLinejoin="miter" strokeMiterlimit="4" strokeWidth="0.2" d="M406.56 381.438c-5.023 14.326-9.644 31.1-19.115 48.025 0 0-16.745 17.635-16.745 19.655-25.639 2.238-43.948 22.798-64.65 37.376-36.962 28.978-38.187 67.486-35.355 107.076 23.81 45.36 45.753 54.06 64.65 81.822 13.325 9.797 15.924 21.977 40.405 29.295-19.256-2.538-28.725-18.778-41.921-29.8-19.916-32.618-48.085-45.402-58.589-80.307-19.852-73.479 27.639-116.407 95.46-147.482l17.677-17.173z" display="inline"></path>
      <path fill="#235d6b" stroke="#c21d02" strokeLinecap="butt" strokeLinejoin="miter" strokeWidth="1" d="M476.766 497.605c9.628 12.964 11.953 25.928 13.637 38.891 8.15 30.642 11.273 61.283 14.142 91.924-3.485 81.084-8.27 68.418-19.193 95.965 14.048-18.682 16.902-52.607 17.173-97.985.44-25.269.732-49.578-13.132-87.883z" display="inline"></path>
   </g>
</svg>