<svg xmlns="http://www.w3.org/2000/svg" version="1.1" viewBox="0 0 193.05 210.58">
  <g transform="translate(-232.45 -564.42)">
    <g>
      <path fill="#ec9f9f" d="M346.07 625.74c4.942-12.794 17.393-17.103 28.394-9.89 15.051 9.871 29.298 21.7 37.92 37.952 6.59 12.42 12.811 25.332 12.852 39.796.058 20.562.971 41.218-.95 61.732-.929 9.908-7.297 20.177-18.615 19.658-12.951-.594-26.15-1.123-38.151-6.986-10.364-5.064-22.064-9.607-28.682-18.885-7.932-11.12-4.502-26.56-6.914-39.786-4.416-24.212 3.894-48.156 9.072-71.58.964-4.361 3.469-7.854 5.074-12.01z"></path>
      <path fill="#ec9f9f" d="M311.89 625.74c-4.942-12.794-17.393-17.103-28.394-9.89-15.051 9.871-29.298 21.7-37.92 37.952-6.59 12.42-12.811 25.332-12.852 39.796-.058 20.562-.971 41.218.95 61.732.929 9.908 7.297 20.177 18.615 19.658 12.951-.594 26.15-1.123 38.151-6.986 10.364-5.064 22.064-9.607 28.682-18.885 7.932-11.12 4.502-26.56 6.914-39.786 4.416-24.212-3.894-48.156-9.072-71.58-.964-4.361-3.469-7.854-5.074-12.01z"></path>
      <path fill="#8a5c3b" d="M329.26 673.4l-3.273.494-3.387 2.408-16.54 13.763-5.304 5.556-.126 5.808 1.515 1.768 4.04-.126 3.157-2.4 5.304-1.135.252 1.01-3.788 2.273.126 1.136s3.157-.253 3.915-.253c.757 0 .394.498.547.639 2.458 3.384-3.7 1.268-5.242 1.715-7.826.027 3.788 6.57-1.53 7.854-4.095-4.316-1.629 3.599-3.84-.406-1.726-1.283-2.8-6.775-5.078-4.447-1.65 4.26.018 9.376.93 13.703-2.433 2.664 3.901 2.933 5.404 1.378 4.766-3.092 6.53.688.192 2.164-9.864 1.552 1.274 4.79 4.913 2.234 2.038 3.885-5.445 9.402-8.157 3.646-3.131-3.422-.707 8.673 1.753 10.553 1.85.961 6.817 7.627 2.55 5.77-6.327-5.194 1.675 7.053-2.9 3.387-2.223-3.68-5.819-6.696-7.078-10.668 1.282-2.055-1.03-12.548-1.955-7.092-6.394 6.62 6.643 14.312 2.708 18.923-7.062-3.939.066 5.75-5.384 6.585-.189-1.637-3.046-4.192-2.934-6.417-.163-3.745 1.608-7.802-.004-11.306-6.173 2.412.077 13.9-5.43 14.016 1.432-5.389-5.272-7.34-1.767-.379 2.657 4.151-4.25 6.52-1.699.588-2.546-3.828-1.213 3.903-3.34 5.168-1.571 1.024-2.892-9.819.51-11.416 1.918-2.6 7.39-3.524 4.303-7.505-2.011-2.877.796-5.48 1.771-8.188 1.374-3.225 3.042-9.368-.989-3.43-5.427 4.52-2.059 16.633-7.58 18.296-1.02-1.089-5.372 6.726-4.573 1.935.166-2.825 3.711-6.074-.84-3.196-1.523-4.098 3.005-15.237 7.891-19.273 6.636-8.898-9.144-7.003-7.363 1.351 1.786 6.911-7.578 9.836-5.837 15.795.703 3.074 1.949 12.328-1.53 10.906-3.207-5.19.46 2.584-1.081 4.51-5.722 1.497-2.43-7.6-4.644-8.697-.857 4.025-1.71 8.05-2.674 12.051-2.308-1.144-3.597-.688-5.295 1.96-3.952 3.772-.865-6.529-3.79-3.025-4.667-.218 3.56-7.693 5.492-10.54 4.374-2.126 3.682-7.592 6.899-10.614 1.389-4.612-7.213-.722-7.046 3.278-.55 3.6-7.5 7.27-6.213 1.462 6.07-6.068-3.896.772-4.156-2.968 3.646-1.828-1.967-3.298 2.369-4.35 2.926-1.581 10.135-.19 7.569-5.11 1.526-2.005 4.958.27 4.463 2.819 2.47 1.905 5.296.114 6.17-2.513 1.904-3.273 2.517-4.864-.758-1.39-5.827 1.726-2.977-4.863 1.187-5.717-1.05-1.41 1.748-3.306.579-4.338-4.368 1.514-8.08 4.26-11.31 7.54-1.748-.334-4.507 1.072-5.994 3.402-2.63 1.3-5.263 2.799-7.822.503.891-1.932 5.433-5.279 1.65-5.545-.553-2.247 8.24-3.408 2.531-5.325 2.043-1.94 2.297-3.294 4.658-5.419-.314 5.342 6.058 6.272 9.85 4.04-.423-1.843-6.912-.815-4.248-3.064 5.528.419-.63-3.138 1.034-4.673 2.698 1.014 2.845.217 3.007-1.928 1.553 4.52 2.733-2.699 4.317.472.016 2.936-2.126 5.648 3.718 4.522 6.698-3.395 14.153-6.212 18.102-12.954 3.777-2.188 6.614-6.214 10.792-7.543 4.127-1.814-6.121-3.331-7.808-.464-4.618 5.844-8.812 12.948-16.794 14.647-8.053-2.019 9.256-8.063-.161-6.17-3.105.99-4.499 4.835-8.182 4.424-1.683.576-8.06-.368-5.65-1.688 4.153-1.984-1.255-2.003-3.475-1.617-1.266-1.295 6.366-4.08 2.715-4.74-2.376 2.308-9.502 3.161-5.51-1.526 6.583-3.885-2.833-3.567-6.127-6.74.337-3.814 4.894-4.078 7.705-5.303 5.665-.843 5.232 4.997 8.65 7.395 1.984 2.2 6.116 1.806 7.391.192-2.625-4.808 1.753-6.597 6.273-5.193 5.172-4.01-12.98-1.213-10.32-3.91 6.76-1.592-2.081-.023-1.582-4.025 2.416-1.347-2.246-6.033 1.013-6.4 4.916 2.015 9.994 3.817 14.505 6.938 2.766.439 7.375 2.567 8.096-2.186 3.172-.18 2.994 4.303 5.873 5.295 4.148-.554 6.843-4.04 10.193-6.205 3.457-1.602 3.102-3.068 1.544-5.966.27-3.287-5.182-3.43-5.233-.12-1.734 1.613-1.286 6.752-4.33 5.148-4.53-4.175-8.815-1.02-14.112-.692-6.243-.007-3.328-3.032.826-3.277-.662-2.834-4.374-2.273-6.649-2.365-3.73.273-7.254 2.63-10.664-.212-2.322.012-13.757-2.896-6.804-4.115 6.117-2.098-7.627-.71-5.848-5.481 1.261-1.959 5.51-1.165 6.589-.07-.075-3.937 3.373-3.19 4.908-.495 1.708.09 5.882 4.432 5.715 1.626-1.9-3.256 3.474-1.572 4.958-.641 2.694.843 2.96 5.56 6.406 4.177 2.269-5.486 9.856-4.771 14.651-3.424 6.467 1.293-4.162-2.613-6.317-3.647-3.513.368-8.421 3.176-11.278.062 6.28-2.973-6.423-2.624-7.731-5.606 2.359-2.952 8.783-3.737 12.443-1.762 1.75 1.367 7.636 2.762 6.696.846-5.404-1.014-8.115-6.312-13.33-7.406-2.103.084-7.942-1.494-3.562-2.772 4.083-.599.58-3.922-1.518-4.962-2.934-1.071 2.682-5.695 3.55-2.095 1.183.893 4.819 6.635 4.184 3.445-.867-2.468-1.987-5.058-.06-7.403 3.187 1.266 4.914 4.459 5.894 7.583 6.831 1.058 9.51 9.876 16.455 11.483-3.372-4.532-6.567-9.201-10.228-13.51-2.17-.915-5.651-3.581-2.118-5.242 2.723 1.376 1.912-2.369 4.284-1.69 3.592 1.494 3.78 5.709 6.239 8.316 2.568 4.65 1.122-4.635-.606-6-.382-2.131-5.102-4.689-1.545-6.19 1.702 1.015 4.318.5 3.483-3.095 1.33-3.752 3.472 2.453 2.859 4.318-.858 1.836.585 7.383 1.952 3.24.368-2.056-1.106-6.004 2.545-5.849 1.187 3.018.603 1.53 3.11.322 2.924 2.558-1.898 3.584-1.136 6.692.052 3.288 2.938-4.602 4.397-1.047 1.529 2.549-3.556 4.55-.852 6.553 1.568-3.9 3.04.139 5.156.538.698 2.126-5.215 2.726-6.807 5.7.266 3.058-1.092 5.926-.884 8.964.992-.418 3.26-6.154 2.944-2.013.152 2.193 4.517-2.096 1.89-3.468 2.473-2.114 2.283 2.49 4.257-.58 4.025 1.247-2.158 4.032 1.566 5.732-1.025 1.617-4.16 1.525-5.005 4.4-.992 2.988-5.77.558-5.785 3.399.462 2.55 2.296 5.839 4.533 6.695 2.854-1.884 5.372-4.811 8.416-6.715 2.244-1.991 3.03-3.632 2.09-6.354 3.108-2.002-1.771-4.664.435-6.859.417-2.288-.285-4.976-.678-7.023.568-2.647-1-5.077-.32-6.928.894-2.431-1.36-4.337 1.08-6.269-.262-2.732-1.558-4.261-.006-6.928-1.814-2.3-.66-4.586-.248-7.284-2.874-1.939 1.026-4.056.078-6.343-2.62-1.968-.716-4.576-.834-7.14-.112-2.445-1.208-4.853.767-7.144-.367-2.2-3.51-3.42-3.938-5.803-1.207-6.738-4.142-16.653-2.403-21.89.714-2.152 6.036-.133 9.054-.2 2.67 1.493 5.542 1.62 8.688-.1 3.018.068 8.34-1.95 9.055.202 1.738 5.236-1.197 15.152-2.404 21.89-.427 2.383-3.57 3.602-3.937 5.803 1.974 2.29.878 4.698.766 7.143-.118 2.564 1.787 5.172-.834 7.14-.948 2.287 1.454 3.75.078 6.343-1.084 2.043 1.566 4.984-.248 7.284 1.552 2.667.256 4.197-.006 6.929 2.44 1.931.186 3.837 1.08 6.268.68 1.851-.888 4.28-.32 6.929-.393 2.046-1.095 4.734-.678 7.023 2.206 2.195-2.673 4.856.434 6.859-.94 2.722-.153 4.362 2.09 6.353 3.045 1.904 5.563 4.832 8.417 6.716 2.237-.857 4.071-4.146 4.533-6.696-.015-2.84-4.793-.41-5.785-3.399-.845-2.875-3.98-2.783-5.005-4.4 3.724-1.7-2.459-4.484 1.566-5.731 1.974 3.07 1.784-1.535 4.257.579-2.627 1.372 1.738 5.662 1.89 3.468-.317-4.141 1.952 1.596 2.944 2.014.208-3.039-1.15-5.907-.884-8.965-1.592-2.973-7.505-3.574-6.807-5.7 2.117-.4 3.588-4.437 5.156-.538 2.704-2.002-2.381-4.004-.852-6.552 1.46-3.556 4.345 4.334 4.397 1.046.762-3.108-4.06-4.133-1.136-6.692 2.507 1.208 1.923 2.697 3.11-.321 3.651-.156 2.177 3.793 2.545 5.848 1.367 4.143 2.81-1.403 1.952-3.24-.613-1.864 1.53-8.07 2.86-4.318-.836 3.596 1.78 4.11 3.482 3.095 3.557 1.501-1.163 4.059-1.545 6.19-1.728 1.366-3.174 10.65-.606 6 2.458-2.607 2.647-6.822 6.239-8.316 2.372-.679 1.56 3.066 4.284 1.69 3.533 1.661.052 4.327-2.118 5.241-3.66 4.31-6.856 8.979-10.228 13.511 6.945-1.607 9.623-10.426 16.455-11.483.98-3.124 2.707-6.316 5.895-7.583 1.926 2.345.806 4.935-.061 7.403-.635 3.19 3.001-2.552 4.184-3.445.868-3.6 6.484 1.024 3.55 2.095-2.098 1.04-5.601 4.364-1.518 4.963 4.38 1.277-1.459 2.855-3.562 2.771-5.215 1.094-7.926 6.393-13.33 7.406-.94 1.916 4.947.521 6.696-.846 3.66-1.975 10.084-1.19 12.443 1.762-1.308 2.982-14.012 2.633-7.73 5.606-2.858 3.114-7.766.307-11.279-.062-2.155 1.034-12.784 4.94-6.317 3.647 4.795-1.347 12.382-2.061 14.651 3.424 3.446 1.384 3.712-3.334 6.406-4.177 1.484-.93 6.858-2.615 4.958.641-.167 2.806 4.007-1.536 5.715-1.626 1.535-2.696 4.983-3.442 4.908.496 1.08-1.096 5.328-1.89 6.589.07 1.779 4.77-11.964 3.383-5.848 5.48 6.953 1.22-4.482 4.127-6.804 4.116-3.41 2.84-6.933.484-10.664.212-2.275.091-5.987-.47-6.65 2.364 4.156.245 7.07 3.27.827 3.277-5.297-.328-9.582-3.482-14.113.692-3.043 1.604-2.595-3.535-4.329-5.147-.05-3.31-5.503-3.168-5.233.12-1.558 2.897-1.912 4.363 1.544 5.966 3.35 2.164 6.045 5.65 10.193 6.204 2.879-.992 2.701-5.474 5.873-5.295.72 4.753 5.33 2.625 8.096 2.186 4.51-3.121 9.589-4.923 14.505-6.937 3.259.366-1.403 5.052 1.013 6.399.5 4.002-8.343 2.433-1.581 4.026 2.659 2.696-15.493-.102-10.32 3.909 4.52-1.404 8.897.385 6.272 5.194 1.275 1.613 5.408 2.008 7.39-.193 3.419-2.398 2.986-8.237 8.65-7.395 2.812 1.225 7.37 1.49 7.706 5.303-3.294 3.174-12.71 2.855-6.126 6.74 3.99 4.687-3.135 3.834-5.51 1.527-3.652.66 3.98 3.444 2.714 4.74-2.22-.387-7.628-.368-3.475 1.617 2.41 1.32-3.967 2.264-5.65 1.688-3.683.41-5.077-3.435-8.182-4.424-9.417-1.893 7.892 4.15-.161 6.169-7.982-1.7-12.175-8.803-16.794-14.647-1.687-2.867-11.935-1.35-7.808.464 4.178 1.33 7.015 5.355 10.792 7.543 3.95 6.742 11.404 9.559 18.102 12.954 5.844 1.126 3.702-1.586 3.718-4.522 1.584-3.17 2.764 4.048 4.317-.472.162 2.145.309 2.942 3.007 1.928 1.663 1.535-4.494 5.092 1.034 4.673 2.664 2.25-3.825 1.22-4.247 3.065 3.79 2.231 10.164 1.3 9.849-4.04 2.361 2.124 2.615 3.479 4.658 5.418-5.709 1.917 3.084 3.079 2.532 5.325-3.784.266.758 3.613 1.649 5.545-2.56 2.296-5.193.798-7.822-.502-1.487-2.331-4.246-3.737-5.995-3.402-3.229-3.28-6.94-6.027-11.309-7.541-1.169 1.032 1.628 2.928.579 4.338 4.164.854 7.014 7.443 1.187 5.718-3.275-3.474-2.662-1.883-.758 1.39.874 2.626 3.7 4.417 6.17 2.512-.495-2.549 2.937-4.823 4.463-2.82-2.566 4.921 4.643 3.53 7.57 5.11 4.335 1.053-1.278 2.523 2.368 4.35-.26 3.74-10.226-3.098-4.156 2.969 1.287 5.809-5.662 2.138-6.213-1.462.167-4-8.435-7.89-7.046-3.278 3.217 3.022 2.525 8.488 6.899 10.613 1.933 2.849 10.16 10.323 5.492 10.541-2.925-3.503.162 6.798-3.79 3.026-1.698-2.648-2.987-3.105-5.295-1.96-.964-4.001-1.817-8.026-2.674-12.052-2.215 1.098 1.078 10.193-4.644 8.697-1.542-1.926 2.126-9.7-1.081-4.51-3.479 1.422-2.233-7.831-1.53-10.906 1.74-5.959-7.623-8.883-5.837-15.795 1.78-8.354-14-10.249-7.363-1.35 4.886 4.036 9.414 15.175 7.892 19.272-4.552-2.878-1.007.371-.841 3.196.8 4.792-3.554-3.024-4.573-1.935-5.521-1.663-2.153-13.775-7.58-18.297-4.03-5.936-2.363.206-.989 3.431.975 2.708 3.782 5.31 1.77 8.189-3.085 3.98 2.386 4.905 4.303 7.504 3.403 1.598 2.082 12.44.511 11.416-2.127-1.264-.794-8.996-3.34-5.167 2.55 5.93-4.356 3.563-1.699-.588 3.505-6.961-3.2-5.01-1.768.378-5.506-.116.744-11.604-5.43-14.016-1.611 3.505.16 7.561-.003 11.306.112 2.225-2.745 4.78-2.934 6.418-5.45-.836 1.678-10.524-5.384-6.585-3.935-4.61 9.102-12.302 2.708-18.923-.924-5.457-3.237 5.037-1.955 7.091-1.259 3.971-4.855 6.987-7.078 10.668-4.575 3.666 3.427-8.58-2.9-3.386-4.267 1.856.7-4.81 2.55-5.77 2.46-1.88 4.884-13.976 1.753-10.554-2.712 5.756-10.195.24-8.157-3.646 3.64 2.555 14.777-.681 4.913-2.233-6.338-1.477-4.574-5.257.192-2.165 1.503 1.555 7.837 1.286 5.404-1.378.912-4.327 2.58-9.442.93-13.703-2.278-2.327-3.352 3.164-5.077 4.448-2.212 4.004.254-3.911-3.84.405-5.32-1.284 6.295-7.827-1.53-7.854-1.543-.447-6.897 1.222-4.56-2.345.03-.324-.6-.955.157-.955.758 0 3.914.252 3.914.252l.127-1.136-3.788-2.273.252-1.01 5.303 1.136 3.157 2.4 4.04.125 1.516-1.767-.126-5.809-5.304-5.556-16.54-13.763-3.789-1.515-3.05-.341z"></path>
    </g>
  </g>
</svg>